<mxfile host="app.diagrams.net" modified="2021-06-20T13:58:25.109Z" agent="5.0 (Windows NT 10.0; Win64; x64) AppleWebKit/537.36 (KHTML, like Gecko) Chrome/91.0.4472.106 Safari/537.36" etag="atTVr_26YycAanP2dQbL" version="14.8.0" type="github">
  <diagram id="C5RBs43oDa-KdzZeNtuy" name="Page-1">
    <mxGraphModel dx="1393" dy="924" grid="1" gridSize="10" guides="1" tooltips="1" connect="1" arrows="1" fold="1" page="1" pageScale="1" pageWidth="827" pageHeight="1169" math="0" shadow="0">
      <root>
        <mxCell id="WIyWlLk6GJQsqaUBKTNV-0" />
        <mxCell id="WIyWlLk6GJQsqaUBKTNV-1" parent="WIyWlLk6GJQsqaUBKTNV-0" />
        <mxCell id="yv6Iep3xi78wKn3II4Aw-0" value="MOKINIAI" style="shape=table;startSize=30;container=1;collapsible=0;childLayout=tableLayout;fixedRows=1;rowLines=0;fontStyle=1;align=center;fillColor=#B2C9AB;strokeColor=#788AA3;fontColor=#46495D;rounded=1;" vertex="1" parent="WIyWlLk6GJQsqaUBKTNV-1">
          <mxGeometry x="290" y="110" width="180" height="190" as="geometry" />
        </mxCell>
        <mxCell id="yv6Iep3xi78wKn3II4Aw-1" value="" style="shape=partialRectangle;html=1;whiteSpace=wrap;collapsible=0;dropTarget=0;pointerEvents=0;fillColor=none;top=0;left=0;bottom=1;right=0;points=[[0,0.5],[1,0.5]];portConstraint=eastwest;strokeColor=#788AA3;fontColor=#46495D;rounded=1;" vertex="1" parent="yv6Iep3xi78wKn3II4Aw-0">
          <mxGeometry y="30" width="180" height="30" as="geometry" />
        </mxCell>
        <mxCell id="yv6Iep3xi78wKn3II4Aw-2" value="PR" style="shape=partialRectangle;html=1;whiteSpace=wrap;connectable=0;fillColor=none;top=0;left=0;bottom=0;right=0;overflow=hidden;strokeColor=#788AA3;fontColor=#46495D;rounded=1;" vertex="1" parent="yv6Iep3xi78wKn3II4Aw-1">
          <mxGeometry width="40" height="30" as="geometry" />
        </mxCell>
        <mxCell id="yv6Iep3xi78wKn3II4Aw-3" value="Mok_Nr." style="shape=partialRectangle;html=1;whiteSpace=wrap;connectable=0;fillColor=none;top=0;left=0;bottom=0;right=0;align=left;spacingLeft=6;overflow=hidden;strokeColor=#788AA3;fontColor=#46495D;rounded=1;" vertex="1" parent="yv6Iep3xi78wKn3II4Aw-1">
          <mxGeometry x="40" width="140" height="30" as="geometry" />
        </mxCell>
        <mxCell id="yv6Iep3xi78wKn3II4Aw-4" value="" style="shape=partialRectangle;html=1;whiteSpace=wrap;collapsible=0;dropTarget=0;pointerEvents=0;fillColor=none;top=0;left=0;bottom=0;right=0;points=[[0,0.5],[1,0.5]];portConstraint=eastwest;strokeColor=#788AA3;fontColor=#46495D;rounded=1;" vertex="1" parent="yv6Iep3xi78wKn3II4Aw-0">
          <mxGeometry y="60" width="180" height="30" as="geometry" />
        </mxCell>
        <mxCell id="yv6Iep3xi78wKn3II4Aw-5" value="2" style="shape=partialRectangle;html=1;whiteSpace=wrap;connectable=0;fillColor=none;top=0;left=0;bottom=0;right=0;overflow=hidden;strokeColor=#788AA3;fontColor=#46495D;rounded=1;" vertex="1" parent="yv6Iep3xi78wKn3II4Aw-4">
          <mxGeometry width="40" height="30" as="geometry" />
        </mxCell>
        <mxCell id="yv6Iep3xi78wKn3II4Aw-6" value="Vardas" style="shape=partialRectangle;html=1;whiteSpace=wrap;connectable=0;fillColor=none;top=0;left=0;bottom=0;right=0;align=left;spacingLeft=6;overflow=hidden;strokeColor=#788AA3;fontColor=#46495D;rounded=1;" vertex="1" parent="yv6Iep3xi78wKn3II4Aw-4">
          <mxGeometry x="40" width="140" height="30" as="geometry" />
        </mxCell>
        <mxCell id="yv6Iep3xi78wKn3II4Aw-7" value="" style="shape=partialRectangle;html=1;whiteSpace=wrap;collapsible=0;dropTarget=0;pointerEvents=0;fillColor=none;top=0;left=0;bottom=0;right=0;points=[[0,0.5],[1,0.5]];portConstraint=eastwest;strokeColor=#788AA3;fontColor=#46495D;rounded=1;" vertex="1" parent="yv6Iep3xi78wKn3II4Aw-0">
          <mxGeometry y="90" width="180" height="30" as="geometry" />
        </mxCell>
        <mxCell id="yv6Iep3xi78wKn3II4Aw-8" value="3" style="shape=partialRectangle;html=1;whiteSpace=wrap;connectable=0;fillColor=none;top=0;left=0;bottom=0;right=0;overflow=hidden;strokeColor=#788AA3;fontColor=#46495D;rounded=1;" vertex="1" parent="yv6Iep3xi78wKn3II4Aw-7">
          <mxGeometry width="40" height="30" as="geometry" />
        </mxCell>
        <mxCell id="yv6Iep3xi78wKn3II4Aw-9" value="Pavarde" style="shape=partialRectangle;html=1;whiteSpace=wrap;connectable=0;fillColor=none;top=0;left=0;bottom=0;right=0;align=left;spacingLeft=6;overflow=hidden;strokeColor=#788AA3;fontColor=#46495D;rounded=1;" vertex="1" parent="yv6Iep3xi78wKn3II4Aw-7">
          <mxGeometry x="40" width="140" height="30" as="geometry" />
        </mxCell>
        <mxCell id="yv6Iep3xi78wKn3II4Aw-10" value="MOKYTOJAI" style="shape=table;startSize=30;container=1;collapsible=0;childLayout=tableLayout;fixedRows=1;rowLines=0;fontStyle=1;align=center;fillColor=#B2C9AB;strokeColor=#788AA3;fontColor=#46495D;rounded=1;" vertex="1" parent="WIyWlLk6GJQsqaUBKTNV-1">
          <mxGeometry x="90" y="385" width="180" height="200" as="geometry" />
        </mxCell>
        <mxCell id="yv6Iep3xi78wKn3II4Aw-11" value="" style="shape=partialRectangle;html=1;whiteSpace=wrap;collapsible=0;dropTarget=0;pointerEvents=0;fillColor=none;top=0;left=0;bottom=1;right=0;points=[[0,0.5],[1,0.5]];portConstraint=eastwest;strokeColor=#788AA3;fontColor=#46495D;rounded=1;" vertex="1" parent="yv6Iep3xi78wKn3II4Aw-10">
          <mxGeometry y="30" width="180" height="30" as="geometry" />
        </mxCell>
        <mxCell id="yv6Iep3xi78wKn3II4Aw-12" value="PR" style="shape=partialRectangle;html=1;whiteSpace=wrap;connectable=0;fillColor=none;top=0;left=0;bottom=0;right=0;overflow=hidden;strokeColor=#788AA3;fontColor=#46495D;rounded=1;" vertex="1" parent="yv6Iep3xi78wKn3II4Aw-11">
          <mxGeometry width="40" height="30" as="geometry" />
        </mxCell>
        <mxCell id="yv6Iep3xi78wKn3II4Aw-13" value="M_Nr." style="shape=partialRectangle;html=1;whiteSpace=wrap;connectable=0;fillColor=none;top=0;left=0;bottom=0;right=0;align=left;spacingLeft=6;overflow=hidden;strokeColor=#788AA3;fontColor=#46495D;rounded=1;" vertex="1" parent="yv6Iep3xi78wKn3II4Aw-11">
          <mxGeometry x="40" width="140" height="30" as="geometry" />
        </mxCell>
        <mxCell id="yv6Iep3xi78wKn3II4Aw-14" value="" style="shape=partialRectangle;html=1;whiteSpace=wrap;collapsible=0;dropTarget=0;pointerEvents=0;fillColor=none;top=0;left=0;bottom=0;right=0;points=[[0,0.5],[1,0.5]];portConstraint=eastwest;strokeColor=#788AA3;fontColor=#46495D;rounded=1;" vertex="1" parent="yv6Iep3xi78wKn3II4Aw-10">
          <mxGeometry y="60" width="180" height="30" as="geometry" />
        </mxCell>
        <mxCell id="yv6Iep3xi78wKn3II4Aw-15" value="2" style="shape=partialRectangle;html=1;whiteSpace=wrap;connectable=0;fillColor=none;top=0;left=0;bottom=0;right=0;overflow=hidden;strokeColor=#788AA3;fontColor=#46495D;rounded=1;" vertex="1" parent="yv6Iep3xi78wKn3II4Aw-14">
          <mxGeometry width="40" height="30" as="geometry" />
        </mxCell>
        <mxCell id="yv6Iep3xi78wKn3II4Aw-16" value="Vardas" style="shape=partialRectangle;html=1;whiteSpace=wrap;connectable=0;fillColor=none;top=0;left=0;bottom=0;right=0;align=left;spacingLeft=6;overflow=hidden;strokeColor=#788AA3;fontColor=#46495D;rounded=1;" vertex="1" parent="yv6Iep3xi78wKn3II4Aw-14">
          <mxGeometry x="40" width="140" height="30" as="geometry" />
        </mxCell>
        <mxCell id="yv6Iep3xi78wKn3II4Aw-17" value="" style="shape=partialRectangle;html=1;whiteSpace=wrap;collapsible=0;dropTarget=0;pointerEvents=0;fillColor=none;top=0;left=0;bottom=0;right=0;points=[[0,0.5],[1,0.5]];portConstraint=eastwest;strokeColor=#788AA3;fontColor=#46495D;rounded=1;" vertex="1" parent="yv6Iep3xi78wKn3II4Aw-10">
          <mxGeometry y="90" width="180" height="30" as="geometry" />
        </mxCell>
        <mxCell id="yv6Iep3xi78wKn3II4Aw-18" value="3" style="shape=partialRectangle;html=1;whiteSpace=wrap;connectable=0;fillColor=none;top=0;left=0;bottom=0;right=0;overflow=hidden;strokeColor=#788AA3;fontColor=#46495D;rounded=1;" vertex="1" parent="yv6Iep3xi78wKn3II4Aw-17">
          <mxGeometry width="40" height="30" as="geometry" />
        </mxCell>
        <mxCell id="yv6Iep3xi78wKn3II4Aw-19" value="Pavardė" style="shape=partialRectangle;html=1;whiteSpace=wrap;connectable=0;fillColor=none;top=0;left=0;bottom=0;right=0;align=left;spacingLeft=6;overflow=hidden;strokeColor=#788AA3;fontColor=#46495D;rounded=1;" vertex="1" parent="yv6Iep3xi78wKn3II4Aw-17">
          <mxGeometry x="40" width="140" height="30" as="geometry" />
        </mxCell>
        <mxCell id="yv6Iep3xi78wKn3II4Aw-20" value="KLASĖS" style="shape=table;startSize=30;container=1;collapsible=0;childLayout=tableLayout;fixedRows=1;rowLines=0;fontStyle=1;align=center;fillColor=#B2C9AB;strokeColor=#788AA3;fontColor=#46495D;rounded=1;" vertex="1" parent="WIyWlLk6GJQsqaUBKTNV-1">
          <mxGeometry x="20" y="10" width="180" height="130" as="geometry" />
        </mxCell>
        <mxCell id="yv6Iep3xi78wKn3II4Aw-21" value="" style="shape=partialRectangle;html=1;whiteSpace=wrap;collapsible=0;dropTarget=0;pointerEvents=0;fillColor=none;top=0;left=0;bottom=1;right=0;points=[[0,0.5],[1,0.5]];portConstraint=eastwest;strokeColor=#788AA3;fontColor=#46495D;rounded=1;" vertex="1" parent="yv6Iep3xi78wKn3II4Aw-20">
          <mxGeometry y="30" width="180" height="30" as="geometry" />
        </mxCell>
        <mxCell id="yv6Iep3xi78wKn3II4Aw-22" value="PR" style="shape=partialRectangle;html=1;whiteSpace=wrap;connectable=0;fillColor=none;top=0;left=0;bottom=0;right=0;overflow=hidden;strokeColor=#788AA3;fontColor=#46495D;rounded=1;" vertex="1" parent="yv6Iep3xi78wKn3II4Aw-21">
          <mxGeometry width="40" height="30" as="geometry" />
        </mxCell>
        <mxCell id="yv6Iep3xi78wKn3II4Aw-23" value="Klas_Kodas" style="shape=partialRectangle;html=1;whiteSpace=wrap;connectable=0;fillColor=none;top=0;left=0;bottom=0;right=0;align=left;spacingLeft=6;overflow=hidden;strokeColor=#788AA3;fontColor=#46495D;rounded=1;" vertex="1" parent="yv6Iep3xi78wKn3II4Aw-21">
          <mxGeometry x="40" width="140" height="30" as="geometry" />
        </mxCell>
        <mxCell id="yv6Iep3xi78wKn3II4Aw-24" value="" style="shape=partialRectangle;html=1;whiteSpace=wrap;collapsible=0;dropTarget=0;pointerEvents=0;fillColor=none;top=0;left=0;bottom=0;right=0;points=[[0,0.5],[1,0.5]];portConstraint=eastwest;strokeColor=#788AA3;fontColor=#46495D;rounded=1;" vertex="1" parent="yv6Iep3xi78wKn3II4Aw-20">
          <mxGeometry y="60" width="180" height="30" as="geometry" />
        </mxCell>
        <mxCell id="yv6Iep3xi78wKn3II4Aw-25" value="2" style="shape=partialRectangle;html=1;whiteSpace=wrap;connectable=0;fillColor=none;top=0;left=0;bottom=0;right=0;overflow=hidden;strokeColor=#788AA3;fontColor=#46495D;rounded=1;" vertex="1" parent="yv6Iep3xi78wKn3II4Aw-24">
          <mxGeometry width="40" height="30" as="geometry" />
        </mxCell>
        <mxCell id="yv6Iep3xi78wKn3II4Aw-26" value="Klasė" style="shape=partialRectangle;html=1;whiteSpace=wrap;connectable=0;fillColor=none;top=0;left=0;bottom=0;right=0;align=left;spacingLeft=6;overflow=hidden;strokeColor=#788AA3;fontColor=#46495D;rounded=1;" vertex="1" parent="yv6Iep3xi78wKn3II4Aw-24">
          <mxGeometry x="40" width="140" height="30" as="geometry" />
        </mxCell>
        <mxCell id="yv6Iep3xi78wKn3II4Aw-27" value="" style="shape=partialRectangle;html=1;whiteSpace=wrap;collapsible=0;dropTarget=0;pointerEvents=0;fillColor=none;top=0;left=0;bottom=0;right=0;points=[[0,0.5],[1,0.5]];portConstraint=eastwest;strokeColor=#788AA3;fontColor=#46495D;rounded=1;" vertex="1" parent="yv6Iep3xi78wKn3II4Aw-20">
          <mxGeometry y="90" width="180" height="30" as="geometry" />
        </mxCell>
        <mxCell id="yv6Iep3xi78wKn3II4Aw-28" value="3" style="shape=partialRectangle;html=1;whiteSpace=wrap;connectable=0;fillColor=none;top=0;left=0;bottom=0;right=0;overflow=hidden;strokeColor=#788AA3;fontColor=#46495D;rounded=1;" vertex="1" parent="yv6Iep3xi78wKn3II4Aw-27">
          <mxGeometry width="40" height="30" as="geometry" />
        </mxCell>
        <mxCell id="yv6Iep3xi78wKn3II4Aw-29" value="Raidė" style="shape=partialRectangle;html=1;whiteSpace=wrap;connectable=0;fillColor=none;top=0;left=0;bottom=0;right=0;align=left;spacingLeft=6;overflow=hidden;strokeColor=#788AA3;fontColor=#46495D;rounded=1;" vertex="1" parent="yv6Iep3xi78wKn3II4Aw-27">
          <mxGeometry x="40" width="140" height="30" as="geometry" />
        </mxCell>
        <mxCell id="yv6Iep3xi78wKn3II4Aw-30" value="PAŽYMIAI" style="shape=table;startSize=30;container=1;collapsible=0;childLayout=tableLayout;fixedRows=1;rowLines=0;fontStyle=1;align=center;fillColor=#B2C9AB;strokeColor=#788AA3;fontColor=#46495D;rounded=1;" vertex="1" parent="WIyWlLk6GJQsqaUBKTNV-1">
          <mxGeometry x="620" y="160" width="180" height="160" as="geometry" />
        </mxCell>
        <mxCell id="yv6Iep3xi78wKn3II4Aw-31" value="" style="shape=partialRectangle;html=1;whiteSpace=wrap;collapsible=0;dropTarget=0;pointerEvents=0;fillColor=none;top=0;left=0;bottom=1;right=0;points=[[0,0.5],[1,0.5]];portConstraint=eastwest;strokeColor=#788AA3;fontColor=#46495D;rounded=1;" vertex="1" parent="yv6Iep3xi78wKn3II4Aw-30">
          <mxGeometry y="30" width="180" height="40" as="geometry" />
        </mxCell>
        <mxCell id="yv6Iep3xi78wKn3II4Aw-32" value="PR" style="shape=partialRectangle;html=1;whiteSpace=wrap;connectable=0;fillColor=none;top=0;left=0;bottom=0;right=0;overflow=hidden;strokeColor=#788AA3;fontColor=#46495D;rounded=1;" vertex="1" parent="yv6Iep3xi78wKn3II4Aw-31">
          <mxGeometry width="40" height="40" as="geometry" />
        </mxCell>
        <mxCell id="yv6Iep3xi78wKn3II4Aw-33" value="Mok_Nr." style="shape=partialRectangle;html=1;whiteSpace=wrap;connectable=0;fillColor=none;top=0;left=0;bottom=0;right=0;align=left;spacingLeft=6;overflow=hidden;strokeColor=#788AA3;fontColor=#46495D;rounded=1;" vertex="1" parent="yv6Iep3xi78wKn3II4Aw-31">
          <mxGeometry x="40" width="140" height="40" as="geometry" />
        </mxCell>
        <mxCell id="yv6Iep3xi78wKn3II4Aw-34" value="" style="shape=partialRectangle;html=1;whiteSpace=wrap;collapsible=0;dropTarget=0;pointerEvents=0;fillColor=none;top=0;left=0;bottom=0;right=0;points=[[0,0.5],[1,0.5]];portConstraint=eastwest;strokeColor=#788AA3;fontColor=#46495D;rounded=1;" vertex="1" parent="yv6Iep3xi78wKn3II4Aw-30">
          <mxGeometry y="70" width="180" height="30" as="geometry" />
        </mxCell>
        <mxCell id="yv6Iep3xi78wKn3II4Aw-35" value="PR" style="shape=partialRectangle;html=1;whiteSpace=wrap;connectable=0;fillColor=none;top=0;left=0;bottom=0;right=0;overflow=hidden;strokeColor=#788AA3;fontColor=#46495D;rounded=1;" vertex="1" parent="yv6Iep3xi78wKn3II4Aw-34">
          <mxGeometry width="40" height="30" as="geometry" />
        </mxCell>
        <mxCell id="yv6Iep3xi78wKn3II4Aw-36" value="D_Kodas" style="shape=partialRectangle;html=1;whiteSpace=wrap;connectable=0;fillColor=none;top=0;left=0;bottom=0;right=0;align=left;spacingLeft=6;overflow=hidden;strokeColor=#788AA3;fontColor=#46495D;rounded=1;" vertex="1" parent="yv6Iep3xi78wKn3II4Aw-34">
          <mxGeometry x="40" width="140" height="30" as="geometry" />
        </mxCell>
        <mxCell id="yv6Iep3xi78wKn3II4Aw-37" value="" style="shape=partialRectangle;html=1;whiteSpace=wrap;collapsible=0;dropTarget=0;pointerEvents=0;fillColor=none;top=0;left=0;bottom=0;right=0;points=[[0,0.5],[1,0.5]];portConstraint=eastwest;strokeColor=#788AA3;fontColor=#46495D;rounded=1;" vertex="1" parent="yv6Iep3xi78wKn3II4Aw-30">
          <mxGeometry y="100" width="180" height="30" as="geometry" />
        </mxCell>
        <mxCell id="yv6Iep3xi78wKn3II4Aw-38" value="3" style="shape=partialRectangle;html=1;whiteSpace=wrap;connectable=0;fillColor=none;top=0;left=0;bottom=0;right=0;overflow=hidden;strokeColor=#788AA3;fontColor=#46495D;rounded=1;" vertex="1" parent="yv6Iep3xi78wKn3II4Aw-37">
          <mxGeometry width="40" height="30" as="geometry" />
        </mxCell>
        <mxCell id="yv6Iep3xi78wKn3II4Aw-39" value="&lt;span&gt;Data&lt;/span&gt;" style="shape=partialRectangle;html=1;whiteSpace=wrap;connectable=0;fillColor=none;top=0;left=0;bottom=0;right=0;align=left;spacingLeft=6;overflow=hidden;strokeColor=#788AA3;fontColor=#46495D;rounded=1;" vertex="1" parent="yv6Iep3xi78wKn3II4Aw-37">
          <mxGeometry x="40" width="140" height="30" as="geometry" />
        </mxCell>
        <mxCell id="yv6Iep3xi78wKn3II4Aw-50" value="DISCIPLINOS" style="shape=table;startSize=30;container=1;collapsible=0;childLayout=tableLayout;fixedRows=1;rowLines=0;fontStyle=1;align=center;fillColor=#B2C9AB;strokeColor=#788AA3;fontColor=#46495D;rounded=1;" vertex="1" parent="WIyWlLk6GJQsqaUBKTNV-1">
          <mxGeometry x="600" y="400" width="180" height="130" as="geometry" />
        </mxCell>
        <mxCell id="yv6Iep3xi78wKn3II4Aw-51" value="" style="shape=partialRectangle;html=1;whiteSpace=wrap;collapsible=0;dropTarget=0;pointerEvents=0;fillColor=none;top=0;left=0;bottom=1;right=0;points=[[0,0.5],[1,0.5]];portConstraint=eastwest;strokeColor=#788AA3;fontColor=#46495D;rounded=1;" vertex="1" parent="yv6Iep3xi78wKn3II4Aw-50">
          <mxGeometry y="30" width="180" height="30" as="geometry" />
        </mxCell>
        <mxCell id="yv6Iep3xi78wKn3II4Aw-52" value="PR" style="shape=partialRectangle;html=1;whiteSpace=wrap;connectable=0;fillColor=none;top=0;left=0;bottom=0;right=0;overflow=hidden;strokeColor=#788AA3;fontColor=#46495D;rounded=1;" vertex="1" parent="yv6Iep3xi78wKn3II4Aw-51">
          <mxGeometry width="40" height="30" as="geometry" />
        </mxCell>
        <mxCell id="yv6Iep3xi78wKn3II4Aw-53" value="D_Kodas" style="shape=partialRectangle;html=1;whiteSpace=wrap;connectable=0;fillColor=none;top=0;left=0;bottom=0;right=0;align=left;spacingLeft=6;overflow=hidden;strokeColor=#788AA3;fontColor=#46495D;rounded=1;" vertex="1" parent="yv6Iep3xi78wKn3II4Aw-51">
          <mxGeometry x="40" width="140" height="30" as="geometry" />
        </mxCell>
        <mxCell id="yv6Iep3xi78wKn3II4Aw-54" value="" style="shape=partialRectangle;html=1;whiteSpace=wrap;collapsible=0;dropTarget=0;pointerEvents=0;fillColor=none;top=0;left=0;bottom=0;right=0;points=[[0,0.5],[1,0.5]];portConstraint=eastwest;strokeColor=#788AA3;fontColor=#46495D;rounded=1;" vertex="1" parent="yv6Iep3xi78wKn3II4Aw-50">
          <mxGeometry y="60" width="180" height="30" as="geometry" />
        </mxCell>
        <mxCell id="yv6Iep3xi78wKn3II4Aw-55" value="2" style="shape=partialRectangle;html=1;whiteSpace=wrap;connectable=0;fillColor=none;top=0;left=0;bottom=0;right=0;overflow=hidden;strokeColor=#788AA3;fontColor=#46495D;rounded=1;" vertex="1" parent="yv6Iep3xi78wKn3II4Aw-54">
          <mxGeometry width="40" height="30" as="geometry" />
        </mxCell>
        <mxCell id="yv6Iep3xi78wKn3II4Aw-56" value="Pavadinimas" style="shape=partialRectangle;html=1;whiteSpace=wrap;connectable=0;fillColor=none;top=0;left=0;bottom=0;right=0;align=left;spacingLeft=6;overflow=hidden;strokeColor=#788AA3;fontColor=#46495D;rounded=1;" vertex="1" parent="yv6Iep3xi78wKn3II4Aw-54">
          <mxGeometry x="40" width="140" height="30" as="geometry" />
        </mxCell>
        <mxCell id="yv6Iep3xi78wKn3II4Aw-57" value="" style="shape=partialRectangle;html=1;whiteSpace=wrap;collapsible=0;dropTarget=0;pointerEvents=0;fillColor=none;top=0;left=0;bottom=0;right=0;points=[[0,0.5],[1,0.5]];portConstraint=eastwest;strokeColor=#788AA3;fontColor=#46495D;rounded=1;" vertex="1" parent="yv6Iep3xi78wKn3II4Aw-50">
          <mxGeometry y="90" width="180" height="30" as="geometry" />
        </mxCell>
        <mxCell id="yv6Iep3xi78wKn3II4Aw-58" value="" style="shape=partialRectangle;html=1;whiteSpace=wrap;connectable=0;fillColor=none;top=0;left=0;bottom=0;right=0;overflow=hidden;strokeColor=#788AA3;fontColor=#46495D;rounded=1;" vertex="1" parent="yv6Iep3xi78wKn3II4Aw-57">
          <mxGeometry width="40" height="30" as="geometry" />
        </mxCell>
        <mxCell id="yv6Iep3xi78wKn3II4Aw-59" value="" style="shape=partialRectangle;html=1;whiteSpace=wrap;connectable=0;fillColor=none;top=0;left=0;bottom=0;right=0;align=left;spacingLeft=6;overflow=hidden;strokeColor=#788AA3;fontColor=#46495D;rounded=1;" vertex="1" parent="yv6Iep3xi78wKn3II4Aw-57">
          <mxGeometry x="40" width="140" height="30" as="geometry" />
        </mxCell>
        <mxCell id="yv6Iep3xi78wKn3II4Aw-60" value="DĖSTOMA" style="shape=table;startSize=30;container=1;collapsible=0;childLayout=tableLayout;fixedRows=1;rowLines=0;fontStyle=1;align=center;fillColor=#B2C9AB;strokeColor=#788AA3;fontColor=#46495D;rounded=1;" vertex="1" parent="WIyWlLk6GJQsqaUBKTNV-1">
          <mxGeometry x="350" y="360" width="180" height="120" as="geometry" />
        </mxCell>
        <mxCell id="yv6Iep3xi78wKn3II4Aw-61" value="" style="shape=partialRectangle;html=1;whiteSpace=wrap;collapsible=0;dropTarget=0;pointerEvents=0;fillColor=none;top=0;left=0;bottom=1;right=0;points=[[0,0.5],[1,0.5]];portConstraint=eastwest;strokeColor=#788AA3;fontColor=#46495D;rounded=1;" vertex="1" parent="yv6Iep3xi78wKn3II4Aw-60">
          <mxGeometry y="30" width="180" height="30" as="geometry" />
        </mxCell>
        <mxCell id="yv6Iep3xi78wKn3II4Aw-62" value="PR" style="shape=partialRectangle;html=1;whiteSpace=wrap;connectable=0;fillColor=none;top=0;left=0;bottom=0;right=0;overflow=hidden;strokeColor=#788AA3;fontColor=#46495D;rounded=1;" vertex="1" parent="yv6Iep3xi78wKn3II4Aw-61">
          <mxGeometry width="40" height="30" as="geometry" />
        </mxCell>
        <mxCell id="yv6Iep3xi78wKn3II4Aw-63" value="M_Nr." style="shape=partialRectangle;html=1;whiteSpace=wrap;connectable=0;fillColor=none;top=0;left=0;bottom=0;right=0;align=left;spacingLeft=6;overflow=hidden;strokeColor=#788AA3;fontColor=#46495D;rounded=1;" vertex="1" parent="yv6Iep3xi78wKn3II4Aw-61">
          <mxGeometry x="40" width="140" height="30" as="geometry" />
        </mxCell>
        <mxCell id="yv6Iep3xi78wKn3II4Aw-64" value="" style="shape=partialRectangle;html=1;whiteSpace=wrap;collapsible=0;dropTarget=0;pointerEvents=0;fillColor=none;top=0;left=0;bottom=0;right=0;points=[[0,0.5],[1,0.5]];portConstraint=eastwest;strokeColor=#788AA3;fontColor=#46495D;rounded=1;" vertex="1" parent="yv6Iep3xi78wKn3II4Aw-60">
          <mxGeometry y="60" width="180" height="30" as="geometry" />
        </mxCell>
        <mxCell id="yv6Iep3xi78wKn3II4Aw-65" value="PR" style="shape=partialRectangle;html=1;whiteSpace=wrap;connectable=0;fillColor=none;top=0;left=0;bottom=0;right=0;overflow=hidden;strokeColor=#788AA3;fontColor=#46495D;rounded=1;" vertex="1" parent="yv6Iep3xi78wKn3II4Aw-64">
          <mxGeometry width="40" height="30" as="geometry" />
        </mxCell>
        <mxCell id="yv6Iep3xi78wKn3II4Aw-66" value="D_Kodas" style="shape=partialRectangle;html=1;whiteSpace=wrap;connectable=0;fillColor=none;top=0;left=0;bottom=0;right=0;align=left;spacingLeft=6;overflow=hidden;strokeColor=#788AA3;fontColor=#46495D;rounded=1;" vertex="1" parent="yv6Iep3xi78wKn3II4Aw-64">
          <mxGeometry x="40" width="140" height="30" as="geometry" />
        </mxCell>
        <mxCell id="yv6Iep3xi78wKn3II4Aw-67" value="" style="shape=partialRectangle;html=1;whiteSpace=wrap;collapsible=0;dropTarget=0;pointerEvents=0;fillColor=none;top=0;left=0;bottom=0;right=0;points=[[0,0.5],[1,0.5]];portConstraint=eastwest;strokeColor=#788AA3;fontColor=#46495D;rounded=1;" vertex="1" parent="yv6Iep3xi78wKn3II4Aw-60">
          <mxGeometry y="90" width="180" height="30" as="geometry" />
        </mxCell>
        <mxCell id="yv6Iep3xi78wKn3II4Aw-68" value="" style="shape=partialRectangle;html=1;whiteSpace=wrap;connectable=0;fillColor=none;top=0;left=0;bottom=0;right=0;overflow=hidden;strokeColor=#788AA3;fontColor=#46495D;rounded=1;" vertex="1" parent="yv6Iep3xi78wKn3II4Aw-67">
          <mxGeometry width="40" height="30" as="geometry" />
        </mxCell>
        <mxCell id="yv6Iep3xi78wKn3II4Aw-69" value="" style="shape=partialRectangle;html=1;whiteSpace=wrap;connectable=0;fillColor=none;top=0;left=0;bottom=0;right=0;align=left;spacingLeft=6;overflow=hidden;strokeColor=#788AA3;fontColor=#46495D;rounded=1;" vertex="1" parent="yv6Iep3xi78wKn3II4Aw-67">
          <mxGeometry x="40" width="140" height="30" as="geometry" />
        </mxCell>
        <mxCell id="yv6Iep3xi78wKn3II4Aw-70" value="Gimimo_Metai" style="shape=partialRectangle;html=1;whiteSpace=wrap;connectable=0;fillColor=none;top=0;left=0;bottom=0;right=0;align=left;spacingLeft=6;overflow=hidden;strokeColor=#788AA3;fontColor=#46495D;rounded=1;" vertex="1" parent="WIyWlLk6GJQsqaUBKTNV-1">
          <mxGeometry x="330" y="230" width="140" height="30" as="geometry" />
        </mxCell>
        <mxCell id="yv6Iep3xi78wKn3II4Aw-71" value="Klas_Kodas" style="shape=partialRectangle;html=1;whiteSpace=wrap;connectable=0;fillColor=none;top=0;left=0;bottom=0;right=0;align=left;spacingLeft=6;overflow=hidden;strokeColor=#788AA3;fontColor=#46495D;rounded=1;" vertex="1" parent="WIyWlLk6GJQsqaUBKTNV-1">
          <mxGeometry x="330" y="260" width="140" height="30" as="geometry" />
        </mxCell>
        <mxCell id="yv6Iep3xi78wKn3II4Aw-74" value="Gimimo metai" style="shape=partialRectangle;html=1;whiteSpace=wrap;connectable=0;fillColor=none;top=0;left=0;bottom=0;right=0;align=left;spacingLeft=6;overflow=hidden;strokeColor=#788AA3;fontColor=#46495D;rounded=1;" vertex="1" parent="WIyWlLk6GJQsqaUBKTNV-1">
          <mxGeometry x="130" y="510" width="140" height="30" as="geometry" />
        </mxCell>
        <mxCell id="yv6Iep3xi78wKn3II4Aw-76" value="Stažas" style="shape=partialRectangle;html=1;whiteSpace=wrap;connectable=0;fillColor=none;top=0;left=0;bottom=0;right=0;align=left;spacingLeft=6;overflow=hidden;strokeColor=#788AA3;fontColor=#46495D;rounded=1;" vertex="1" parent="WIyWlLk6GJQsqaUBKTNV-1">
          <mxGeometry x="130" y="540" width="140" height="30" as="geometry" />
        </mxCell>
        <mxCell id="yv6Iep3xi78wKn3II4Aw-77" value="4" style="shape=partialRectangle;html=1;whiteSpace=wrap;connectable=0;fillColor=none;top=0;left=0;bottom=0;right=0;overflow=hidden;strokeColor=#788AA3;fontColor=#46495D;rounded=1;" vertex="1" parent="WIyWlLk6GJQsqaUBKTNV-1">
          <mxGeometry x="90" y="510" width="40" height="30" as="geometry" />
        </mxCell>
        <mxCell id="yv6Iep3xi78wKn3II4Aw-78" value="5" style="shape=partialRectangle;html=1;whiteSpace=wrap;connectable=0;fillColor=none;top=0;left=0;bottom=0;right=0;overflow=hidden;strokeColor=#788AA3;fontColor=#46495D;rounded=1;" vertex="1" parent="WIyWlLk6GJQsqaUBKTNV-1">
          <mxGeometry x="90" y="540" width="40" height="30" as="geometry" />
        </mxCell>
        <mxCell id="yv6Iep3xi78wKn3II4Aw-80" value="4" style="shape=partialRectangle;html=1;whiteSpace=wrap;connectable=0;fillColor=none;top=0;left=0;bottom=0;right=0;overflow=hidden;strokeColor=#788AA3;fontColor=#46495D;rounded=1;" vertex="1" parent="WIyWlLk6GJQsqaUBKTNV-1">
          <mxGeometry x="620" y="280" width="40" height="30" as="geometry" />
        </mxCell>
        <mxCell id="yv6Iep3xi78wKn3II4Aw-81" value="4" style="shape=partialRectangle;html=1;whiteSpace=wrap;connectable=0;fillColor=none;top=0;left=0;bottom=0;right=0;overflow=hidden;strokeColor=#788AA3;fontColor=#46495D;rounded=1;" vertex="1" parent="WIyWlLk6GJQsqaUBKTNV-1">
          <mxGeometry x="290" y="230" width="40" height="30" as="geometry" />
        </mxCell>
        <mxCell id="yv6Iep3xi78wKn3II4Aw-82" value="5" style="shape=partialRectangle;html=1;whiteSpace=wrap;connectable=0;fillColor=none;top=0;left=0;bottom=0;right=0;overflow=hidden;strokeColor=#788AA3;fontColor=#46495D;rounded=1;" vertex="1" parent="WIyWlLk6GJQsqaUBKTNV-1">
          <mxGeometry x="290" y="260" width="40" height="30" as="geometry" />
        </mxCell>
        <mxCell id="yv6Iep3xi78wKn3II4Aw-84" value="Pažymys" style="shape=partialRectangle;html=1;whiteSpace=wrap;connectable=0;fillColor=none;top=0;left=0;bottom=0;right=0;align=left;spacingLeft=6;overflow=hidden;strokeColor=#788AA3;fontColor=#46495D;rounded=1;" vertex="1" parent="WIyWlLk6GJQsqaUBKTNV-1">
          <mxGeometry x="660" y="280" width="140" height="30" as="geometry" />
        </mxCell>
        <mxCell id="yv6Iep3xi78wKn3II4Aw-91" value="" style="edgeStyle=entityRelationEdgeStyle;fontSize=12;html=1;endArrow=ERoneToMany;startArrow=ERone;fontColor=#46495D;startSize=10;endSize=10;strokeColor=#788AA3;fillColor=#B2C9AB;startFill=0;exitX=1;exitY=0.5;exitDx=0;exitDy=0;entryX=0;entryY=0.5;entryDx=0;entryDy=0;" edge="1" parent="WIyWlLk6GJQsqaUBKTNV-1" source="yv6Iep3xi78wKn3II4Aw-21" target="yv6Iep3xi78wKn3II4Aw-1">
          <mxGeometry width="100" height="100" relative="1" as="geometry">
            <mxPoint x="200" y="120" as="sourcePoint" />
            <mxPoint x="300" y="20" as="targetPoint" />
          </mxGeometry>
        </mxCell>
        <mxCell id="yv6Iep3xi78wKn3II4Aw-92" value="" style="edgeStyle=entityRelationEdgeStyle;fontSize=12;html=1;endArrow=ERoneToMany;startArrow=ERone;fontColor=#46495D;startSize=10;endSize=10;strokeColor=#788AA3;fillColor=#B2C9AB;startFill=0;exitX=1;exitY=0.5;exitDx=0;exitDy=0;entryX=0;entryY=0.5;entryDx=0;entryDy=0;" edge="1" parent="WIyWlLk6GJQsqaUBKTNV-1" source="yv6Iep3xi78wKn3II4Aw-11" target="yv6Iep3xi78wKn3II4Aw-61">
          <mxGeometry width="100" height="100" relative="1" as="geometry">
            <mxPoint x="420" y="530" as="sourcePoint" />
            <mxPoint x="320" y="680" as="targetPoint" />
          </mxGeometry>
        </mxCell>
        <mxCell id="yv6Iep3xi78wKn3II4Aw-93" value="" style="edgeStyle=entityRelationEdgeStyle;fontSize=12;html=1;endArrow=ERoneToMany;startArrow=ERone;fontColor=#46495D;startSize=10;endSize=10;strokeColor=#788AA3;fillColor=#B2C9AB;startFill=0;exitX=-0.022;exitY=0.267;exitDx=0;exitDy=0;entryX=1;entryY=0.5;entryDx=0;entryDy=0;exitPerimeter=0;" edge="1" parent="WIyWlLk6GJQsqaUBKTNV-1" source="yv6Iep3xi78wKn3II4Aw-51" target="yv6Iep3xi78wKn3II4Aw-61">
          <mxGeometry width="100" height="100" relative="1" as="geometry">
            <mxPoint x="470" y="585" as="sourcePoint" />
            <mxPoint x="550" y="560" as="targetPoint" />
          </mxGeometry>
        </mxCell>
        <mxCell id="yv6Iep3xi78wKn3II4Aw-94" value="" style="edgeStyle=entityRelationEdgeStyle;fontSize=12;html=1;endArrow=ERzeroToMany;startArrow=ERone;fontColor=#46495D;startSize=10;endSize=10;strokeColor=#788AA3;fillColor=#B2C9AB;startFill=0;exitX=1.022;exitY=0.733;exitDx=0;exitDy=0;entryX=0;entryY=0.5;entryDx=0;entryDy=0;exitPerimeter=0;endFill=1;" edge="1" parent="WIyWlLk6GJQsqaUBKTNV-1" source="yv6Iep3xi78wKn3II4Aw-4" target="yv6Iep3xi78wKn3II4Aw-31">
          <mxGeometry width="100" height="100" relative="1" as="geometry">
            <mxPoint x="380" y="65" as="sourcePoint" />
            <mxPoint x="280" y="215" as="targetPoint" />
          </mxGeometry>
        </mxCell>
        <mxCell id="yv6Iep3xi78wKn3II4Aw-95" value="" style="edgeStyle=entityRelationEdgeStyle;fontSize=12;html=1;endArrow=ERzeroToMany;startArrow=ERone;fontColor=#46495D;startSize=10;endSize=10;strokeColor=#788AA3;fillColor=#B2C9AB;startFill=0;exitX=0.461;exitY=-0.038;exitDx=0;exitDy=0;exitPerimeter=0;endFill=1;" edge="1" parent="WIyWlLk6GJQsqaUBKTNV-1" source="yv6Iep3xi78wKn3II4Aw-50">
          <mxGeometry width="100" height="100" relative="1" as="geometry">
            <mxPoint x="283.96000000000004" y="251.99" as="sourcePoint" />
            <mxPoint x="610" y="240" as="targetPoint" />
          </mxGeometry>
        </mxCell>
      </root>
    </mxGraphModel>
  </diagram>
</mxfile>
